<svg xmlns="http://www.w3.org/2000/svg" width="49" height="49" viewBox="0 0 49 49"><circle cx="24.5" cy="24.5" r="24.5" fill="#1D38C7"/><g transform="translate(14.573 12.807)"><path d="M99.266,12.878a6.19,6.19,0,0,0,5.279-6.439c0-3.556-.48-6.439-5.279-6.439s-5.279,2.883-5.279,6.439A6.19,6.19,0,0,0,99.266,12.878Zm-4.49-7.513a2.9,2.9,0,0,1,2.9-1.509s1.028,2.494,6.076,1.374c.02.4.027.8.027,1.21a5.741,5.741,0,0,1-1.8,4.36,4.611,4.611,0,0,1-2.708,1.311A4.611,4.611,0,0,1,96.559,10.8a5.741,5.741,0,0,1-1.8-4.36C94.756,6.08,94.761,5.719,94.776,5.364Z" transform="translate(-89.46)" fill="#f9f9f9"/><path d="M44.276,195.245c-.27-1.676-.824-3.835-1.937-4.6-.76-.524-3.412-1.941-4.544-2.546l-.02-.01a.37.37,0,0,0-.4.035,4.81,4.81,0,0,1-1.931.933.37.37,0,0,0-.266.23l-.7,1.847-.7-1.847a.37.37,0,0,0-.266-.23,4.81,4.81,0,0,1-1.931-.933.37.37,0,0,0-.4-.035c-1.119.6-3.8,2.043-4.56,2.554-1.281.863-1.841,3.987-1.941,4.6a.371.371,0,0,0,.017.182c.046.129,1.222,3.17,9.785,3.17s9.739-3.041,9.785-3.17A.37.37,0,0,0,44.276,195.245Zm-3.946-1.023-1.676.522-1.676-.522v-.9h3.352Z" transform="translate(-24.669 -175.764)" fill="#f9f9f9"/></g></svg>