<?xml version="1.0" encoding="utf-8"?>
<!-- Generator: Adobe Illustrator 24.0.1, SVG Export Plug-In . SVG Version: 6.00 Build 0)  -->
<svg version="1.1" id="Capa_1" xmlns="http://www.w3.org/2000/svg" xmlns:xlink="http://www.w3.org/1999/xlink" x="0px" y="0px"
	 viewBox="0 0 512 512" style="enable-background:new 0 0 512 512;" xml:space="preserve">
<style type="text/css">
	.st0{fill:#FFFFFF;}
</style>
<path class="st0" d="M494.7,424.9c3.7,17.8-0.8,36.1-12.3,50.2C471.1,489,454.5,497,436.7,497H75.3c-17.8,0-34.5-7.9-45.8-21.8
	c-11.4-14-15.8-32.1-12.1-49.8c11.2-54.2,41-103.5,83.9-138.8c22.2-18.3,47.3-32.4,74.1-41.8c-29.5-23.7-48.5-60-48.5-100.7
	C126.9,72.9,184.8,15,256,15s129.1,57.9,129.1,129.1c0,40.7-18.9,77-48.4,100.7c39.6,13.9,75.4,37.9,103.4,70.3
	c7.8,9,6.8,22.6-2.2,30.4c-9,7.8-22.6,6.8-30.4-2.2c-38.1-43.9-93.3-69.1-151.6-69.1c-94.6,0-177.3,67.3-196.5,160.1
	c-1,4.9,0.2,10,3.3,13.8c1.8,2.2,5.8,5.9,12.4,5.9h361.5c6.5,0,10.5-3.7,12.3-6c3.3-4,4.6-9.3,3.5-14.3c-2.4-11.6,5.1-23,16.7-25.4
	S492.2,413.3,494.7,424.9z M169.9,144.1c0,47.5,38.6,86.1,86.1,86.1c47.5,0,86.1-38.6,86.1-86.1S303.5,58,256,58
	C208.5,58,169.9,96.6,169.9,144.1z"/>
</svg>
