<?xml version="1.0" encoding="utf-8"?>
<!-- Generator: Adobe Illustrator 24.0.1, SVG Export Plug-In . SVG Version: 6.00 Build 0)  -->
<svg version="1.1" id="Capa_1" xmlns="http://www.w3.org/2000/svg" xmlns:xlink="http://www.w3.org/1999/xlink" x="0px" y="0px"
	 viewBox="0 0 512 512" style="enable-background:new 0 0 512 512;" xml:space="preserve">
<style type="text/css">
	.st0{fill:#FFFFFF;}
</style>
<path class="st0" d="M255,202c11,0,20,9,20,20s-9,20-20,20s-20-9-20-20S244,202,255,202z M325,222c0,11,9,20,20,20s20-9,20-20
	s-9-20-20-20S325,211,325,222z M145,222c0,11,9,20,20,20s20-9,20-20s-9-20-20-20S145,211,145,222z M494.4,409.6
	c23.4,23.4,23.4,61.5,0,84.9C482.7,506.1,467.4,512,452,512s-30.7-5.9-42.4-17.5L299.8,384.9c-2.3-2.3-4.1-5.2-5-8.3l-23.9-78.7
	c-2.1-7-0.3-14.6,4.8-19.8c5.1-5.2,12.6-7.2,19.7-5.3l80.7,22.4c3.3,0.9,6.4,2.7,8.8,5.1L494.4,409.6z M331.6,360.1l74.1,73.9
	l28.3-28.3l-73.7-73.5L319.7,321L331.6,360.1z M466.1,437.9l-3.9-3.9L434,462.3l3.8,3.8c7.8,7.8,20.5,7.8,28.3,0
	C473.9,458.3,473.9,445.7,466.1,437.9z M267.1,414.5c-3.7,0.2-7.4,0.2-11.1,0.2c-32.2,0-63.1-6-92-17.8c-4.9-2-10.4-2-15.3,0.1
	l-91.1,38.4l30.7-72.7c3-7.1,1.6-15.3-3.5-21.1C55.5,308.8,40,269.4,40,227.8C40,124.3,136.9,40,256,40s216,84.3,216,187.8
	c0,24.6-6,49.2-17.9,73.3c-4.9,9.9-0.8,21.9,9.1,26.8s21.9,0.8,26.8-9.1c14.6-29.6,22.1-60.2,22.1-91C512,102.2,397.2,0,256,0
	C114.8,0,0,102.2,0,227.8c0,47.4,16.1,92.3,46.6,130.6L1.6,465.2c-3.2,7.5-1.5,16.2,4.3,21.9C9.7,491,14.8,493,20,493
	c2.6,0,5.3-0.5,7.8-1.6L156.7,437c31.4,11.7,64.8,17.7,99.3,17.7c4.3,0,8.6-0.1,12.9-0.3c11-0.5,19.6-9.8,19.1-20.9
	C287.5,422.5,278.1,413.9,267.1,414.5z"/>
</svg>
