<svg version="1.1" id="Capa_1" xmlns="http://www.w3.org/2000/svg" x="0" y="0" viewBox="0 0 49 49" xml:space="preserve"><style>.st1{fill:#f9f9f9}</style><g transform="translate(-960 -726)"><circle cx="984.5" cy="750.5" r="24.5" fill="#1d38c7"/><circle class="st1" cx="984.5" cy="741.1" r="3.1"/><path class="st1" d="M989.2 752.7l-.7-5.5c-.1-.8-.7-1.4-1.6-1.4h-.9c-.2 0-.4.1-.6.2l-1 1-1-1c-.1-.1-.3-.2-.6-.2h-.9c-.8 0-1.5.6-1.6 1.4l-.7 5.5c0 .2 0 .4.2.6.1.2.4.3.6.3h.8l.7 8c.1.8.7 1.4 1.6 1.4h1.7c.8 0 1.5-.6 1.6-1.4l.7-7.9h.8c.2 0 .4-.1.6-.3.2-.2.3-.4.3-.7z"/><circle class="st1" cx="992.3" cy="741.1" r="3.1"/><path class="st1" d="M976.7 738c-1.7 0-3.1 1.4-3.1 3.1 0 1.7 1.4 3.1 3.1 3.1 1.7 0 3.1-1.4 3.1-3.1 0-1.7-1.4-3.1-3.1-3.1zM997 752.7l-.7-5.5c-.1-.8-.7-1.4-1.6-1.4h-.9c-.2 0-.4.1-.6.2l-1 1-1-1c-.1-.1-.3-.2-.6-.2h-.9c-.1 0-.2 0-.3.1.2.4.4.7.4 1.2l.7 5.5c.1.7-.1 1.3-.6 1.9-.2.2-.5.4-.8.5l.5 5.1c.1.8.7 1.4 1.6 1.4h1.7c.8 0 1.5-.6 1.6-1.4l.6-6.4h.8c.2 0 .4-.1.6-.3.4-.2.5-.4.5-.7zM978.8 754.4c-.4-.5-.6-1.2-.6-1.8l.7-5.5c0-.4.2-.8.4-1.1h-1.2c-.2 0-.4.1-.6.2l-1 1-1-1c-.1-.1-.3-.2-.6-.2h-.9c-.8 0-1.5.6-1.6 1.4l-.7 5.5c0 .2 0 .4.2.6.1.2.4.3.6.3h.8l.7 6.4c.1.8.7 1.4 1.6 1.4h1.7c.8 0 1.5-.6 1.6-1.4l.5-5.1c-.1-.3-.3-.5-.6-.7z"/></g></svg>