<svg xmlns="http://www.w3.org/2000/svg" width="49" height="49" viewBox="0 0 49 49"><g transform="translate(-960 -726)"><circle cx="24.5" cy="24.5" r="24.5" transform="translate(960 726)" fill="#1D38C7"/><g transform="translate(926.236 738.67)"><path d="M142.468,94.267h3.155v3.155h-3.155Z" transform="translate(-89.788 -89.787)" fill="#f9f9f9"/><path d="M336.463,14.477h4.494l-5.69-5.69v4.494A1.2,1.2,0,0,0,336.463,14.477Z" transform="translate(-273.426 -8.369)" fill="#f9f9f9"/><path d="M63.037,7.533a2.624,2.624,0,0,1-2.621-2.621V0H50.822A2.625,2.625,0,0,0,48.2,2.622V21.709a2.624,2.624,0,0,0,2.621,2.622H65.328a2.624,2.624,0,0,0,2.621-2.622V7.533ZM51.254,3.767a.713.713,0,0,1,.713-.713h4.581a.713.713,0,0,1,.713.713V8.348a.713.713,0,0,1-.713.713H51.967a.713.713,0,0,1-.713-.713Zm.713,6.922h9.162a.713.713,0,0,1,0,1.426H51.967a.713.713,0,0,1,0-1.426ZM64.183,21.276H51.967a.713.713,0,0,1,0-1.426H64.183a.713.713,0,0,1,0,1.426Zm0-3.054H51.967a.713.713,0,1,1,0-1.426H64.183a.713.713,0,0,1,0,1.426Zm0-3.054H51.967a.713.713,0,0,1,0-1.426H64.183a.713.713,0,0,1,0,1.426Z" fill="#f9f9f9"/></g></g></svg>