<?xml version="1.0" encoding="utf-8"?>
<!-- Generator: Adobe Illustrator 24.0.1, SVG Export Plug-In . SVG Version: 6.00 Build 0)  -->
<svg version="1.1" id="Layer_1" xmlns="http://www.w3.org/2000/svg" xmlns:xlink="http://www.w3.org/1999/xlink" x="0px" y="0px"
	 viewBox="0 0 512 512" style="enable-background:new 0 0 512 512;" xml:space="preserve">
<style type="text/css">
	.st0{fill:#FFFFFF;}
</style>
<path class="st0" d="M472,392v-20.9c0-25.4-20.7-46.1-46.1-46.1H234c-11,0-20,9-20,20c0,4.7,1.7,9.1,4.4,12.5l4.1,3.7
	c0.1,0.1,0.2,0.2,0.4,0.4c3.2,2.2,7,3.4,11.2,3.4h100c11,0,20,9,20,20s-9,20-20,20H234c-17.4,0-33.1-7.4-44-19.3L74.5,280.2
	c-0.2-0.2-0.3-0.3-0.5-0.5c-3.8-3.7-8.9-5.8-14.2-5.7c-5.3,0-10.3,2.2-14.1,6c-3.7,3.8-5.8,8.9-5.7,14.2c0,5.3,2.1,10.2,5.8,13.9
	l101.8,94.2c0.1,0.1,0.2,0.2,0.3,0.3C194.1,447.4,255,472,319.3,472H492c11,0,20,9,20,20s-9,20-20,20H319.3c-37,0-73.1-7-107.4-20.9
	c-34.2-13.9-65-33.9-91.6-59.5L18.4,337.2c-0.1-0.1-0.3-0.3-0.4-0.4C6.5,325.6,0.2,310.6,0,294.6c-0.2-16,5.9-31.2,17.2-42.6
	s26.2-17.8,42.3-18c15.9-0.2,30.9,5.8,42.3,16.9l77.1,70.5C188.1,300,209.3,285,234,285h191.9c47.5,0,86.1,38.6,86.1,86.1V392
	c0,11-9,20-20,20S472,403,472,392z M143,83.8C143,35.2,176.6,0,223,0c24.7,0,45.6,8.9,60,25.2C297.4,8.9,318.3,0,343,0
	c46.4,0,80,35.2,80,83.8c0,50.9-42.9,82.9-80.7,111.1c-17.4,13-33.9,25.3-43.7,37.6c-3.8,4.7-9.5,7.5-15.6,7.5s-11.8-2.7-15.6-7.5
	c-9.9-12.3-26.3-24.6-43.7-37.6C185.9,166.7,143,134.7,143,83.8z M183,83.8c0,30.8,32.9,55.4,64.6,79.1
	c12.6,9.4,24.8,18.5,35.4,28.2c10.6-9.7,22.7-18.8,35.4-28.2c31.8-23.7,64.6-48.3,64.6-79.1c0-26.2-16.1-43.8-40-43.8
	c-15.9,0-27,5.5-33.8,16.9c-5.2,8.7-6.2,17.7-6.2,17.8c-0.8,10.4-9.5,18.6-19.9,18.6c-0.1,0-0.1,0-0.2,0
	c-10.5-0.1-19.1-8.1-19.8-18.5c-0.1-1-1.3-10.2-6.8-18.8C249.3,45.2,238.5,40,223,40C199.1,40,183,57.6,183,83.8z"/>
</svg>
