<?xml version="1.0" encoding="utf-8"?>
<!-- Generator: Adobe Illustrator 24.0.1, SVG Export Plug-In . SVG Version: 6.00 Build 0)  -->
<svg version="1.1" id="Capa_1" xmlns="http://www.w3.org/2000/svg" xmlns:xlink="http://www.w3.org/1999/xlink" x="0px" y="0px"
	 viewBox="0 0 512 512" style="enable-background:new 0 0 512 512;" xml:space="preserve">
<style type="text/css">
	.st0{fill:#FFFFFF;}
</style>
<path class="st0" d="M509.1,403C263.2-6.9,273.1,9.5,272.3,8.4c-8.3-11.6-26-11.1-33.4,1.3C238.5,10.4,2.9,402.9,2.9,403
	c-8,13.3,1.6,30.3,17.1,30.3h149l72.8,72.8c7.8,7.8,20.5,7.8,28.3,0l72.8-72.8h149C507.5,433.3,517.1,416.3,509.1,403L509.1,403z
	 M213.7,129.3l-52.8,264H55.3L213.7,129.3z M256,463.7l-57-57L256,122l57,284.8L256,463.7z M351.1,393.3l-52.8-264l158.4,264H351.1z
	"/>
</svg>
