<svg xmlns="http://www.w3.org/2000/svg" width="49" height="49" viewBox="0 0 49 49"><g transform="translate(-218 -1154)"><path d="M24.5,0A24.5,24.5,0,1,1,0,24.5,24.5,24.5,0,0,1,24.5,0Z" transform="translate(218 1154)" fill="#3e5380"/><g transform="translate(229.954 1100.988)"><path d="M25.3,70.925v7.659s-1.639.323-1.977.365a2.343,2.343,0,0,1-2.161-.353c-1.182-1.133-5.383-5.311-5.383-5.311a1.6,1.6,0,0,0-1.887-.1c-1.068.563-2.65,1.387-3.311,1.708A1.521,1.521,0,0,1,8.3,73.7a1.555,1.555,0,0,1,.945-1.358c1.507-.914,4.684-2.7,6.007-3.4.8-.428,1.384-.464,2.488.466,1.36,1.144,2.57,2.186,2.57,2.186a1.258,1.258,0,0,0,1.024.2C22.878,71.468,25.3,70.925,25.3,70.925ZM8.582,83.9a1.338,1.338,0,0,0-1.6-1.85,1.38,1.38,0,0,0-.291-1.362,1.412,1.412,0,0,0-1.35-.341,1.379,1.379,0,0,0-.292-1.361,1.524,1.524,0,0,0-2.134.056c-.624.6-1.024,1.684-.467,2.322s1.195.249,1.682.138c-.135.483-.541.933-.042,1.565s1.195.249,1.682.139c-.136.481-.524.976-.043,1.562s1.28.275,1.8.112c-.2.521-.636,1.082-.079,1.711s1.841.34,2.469-.258a1.5,1.5,0,0,0,.135-2.116A1.425,1.425,0,0,0,8.582,83.9Zm11.453-3.985c-4.537-4.537-2.4-2.4-4.845-4.849a1.591,1.591,0,0,0-1.7-.306c-.679.3-1.553.7-2.211,1.013a3.648,3.648,0,0,1-1.487.495A2.523,2.523,0,0,1,8.457,71.6c1.008-.7,3.329-1.932,3.329-1.932a2.913,2.913,0,0,0-2.256-.9c-1.548,0-4.783,2.119-4.783,2.119a2.528,2.528,0,0,1-2.226.058L0,70.072v8.764s.72.208,1.367.473a2.882,2.882,0,0,1,.709-1.119A2.79,2.79,0,0,1,5.9,78.162a2.416,2.416,0,0,1,.6,1.073,2.445,2.445,0,0,1,1.036.632,2.411,2.411,0,0,1,.605,1.071,2.465,2.465,0,0,1,1.676,1.806,2.48,2.48,0,0,1,1.081.648,2.55,2.55,0,0,1,.669,2.209,0,0,0,0,1,0,0c.01.013.364.407.584.63a1.112,1.112,0,0,0,1.573-1.573c-.016-.015-1.561-1.632-1.436-1.757s2.092,1.924,2.129,1.961A1.112,1.112,0,1,0,16,83.293c-.021-.02-.11-.105-.143-.139,0,0-1.952-1.739-1.8-1.887s2.575,2.113,2.579,2.113a1.1,1.1,0,0,0,1.581-1.518c-.008-.023-1.848-1.946-1.7-2.091s1.966,1.728,1.97,1.732a1.112,1.112,0,1,0,1.572-1.574Z" fill="#f9f9f9"/></g></g></svg>