<svg xmlns="http://www.w3.org/2000/svg" width="49" height="49" viewBox="0 0 49 49"><g transform="translate(-218 -930)"><circle cx="24.5" cy="24.5" r="24.5" transform="translate(218 930)" fill="#3e5380"/><g transform="translate(231.906 945.191)"><path d="M211,240h3.722v1.241H211Zm0,0" transform="translate(-202.273 -230.074)" fill="#f9f9f9"/><path d="M17.18,85.376H13.69V86a.62.62,0,0,1-.62.62H8.106a.62.62,0,0,1-.62-.62v-.62H4A1.859,1.859,0,0,1,2.231,84.1L0,77.41V90.959A1.863,1.863,0,0,0,1.861,92.82H19.315a1.863,1.863,0,0,0,1.861-1.861V77.411L18.945,84.1A1.859,1.859,0,0,1,17.18,85.376Zm0,0" transform="translate(0 -74.209)" fill="#f9f9f9"/><path d="M37.811,0H32.848a1.863,1.863,0,0,0-1.861,1.861v.62H25.809L28.148,9.5a.62.62,0,0,0,.589.424h3.49v-.62a.62.62,0,0,1,.62-.62h4.963a.62.62,0,0,1,.62.62v.62h3.49A.62.62,0,0,0,42.51,9.5l2.34-7.021H39.672v-.62A1.863,1.863,0,0,0,37.811,0ZM32.227,2.482v-.62a.621.621,0,0,1,.62-.62h4.963a.621.621,0,0,1,.62.62v.62Zm0,0" transform="translate(-24.741)" fill="#f9f9f9"/></g></g></svg>