<?xml version="1.0" encoding="utf-8"?>
<!-- Generator: Adobe Illustrator 24.0.1, SVG Export Plug-In . SVG Version: 6.00 Build 0)  -->
<svg version="1.1" id="Capa_1" xmlns="http://www.w3.org/2000/svg" xmlns:xlink="http://www.w3.org/1999/xlink" x="0px" y="0px"
	 viewBox="0 0 512 512" style="enable-background:new 0 0 512 512;" xml:space="preserve">
<style type="text/css">
	.st0{fill:#FFFFFF;}
</style>
<path class="st0" d="M492,110.9H384.2V61c0-11-9-20-20-20H147.8c-11,0-20,9-20,20v49.9H20c-11,0-20,9-20,20v320c0,11,9,20,20,20h472
	c11,0,20-9,20-20c0-176.8,0-311,0-320C512,119.9,503,110.9,492,110.9z M167.8,81h176.3v29.9H167.8V81z M40,150.9h432v45.8
	l-159.8,55.9H199.8L40,196.7V150.9z M216.4,292.6h79.2v29.9h-79.2V292.6z M40,430.9V239.1l136.4,47.7v55.7c0,11,9,20,20,20h119.2
	c11,0,20-9,20-20v-55.7L472,239.1v191.8H40z"/>
</svg>
