<svg xmlns="http://www.w3.org/2000/svg" width="49" height="49" viewBox="0 0 49 49"><g transform="translate(-218 -1154)"><circle cx="24.5" cy="24.5" r="24.5" transform="translate(218 1154)" fill="#1D38C7"/><g transform="translate(230.256 1168.003)"><path d="M.074,2.14a.694.694,0,0,0,.129.8l.169.169c.49-.58,1.06-1.21,1.753-1.9.049-.049.1-.073.148-.118L1.183,0C.549,1.147.179,1.93.074,2.14Zm0,0" transform="translate(3.38 13.02)" fill="#f9f9f9"/><path d="M1.9.148C1.205.842.577,1.414,0,1.9l.23.23a.693.693,0,0,0,.807.126c.359-.185.924-.451,2.122-1.118L2.017,0C1.972.049,1.948.1,1.9.148Zm0,0" transform="translate(7.527 18.001)" fill="#f9f9f9"/><path d="M6.3.214c-.5-.5-1.91-.052-2.571.61A18.432,18.432,0,0,0,.069,5.534.693.693,0,0,0,1,6.459a18.567,18.567,0,0,0,4.7-3.675C6.42,2.057,6.779.69,6.3.215Zm0,0" transform="translate(2.753 14.384)" fill="#f9f9f9"/><path d="M2.163,1.66.2,3.621A.693.693,0,0,0,.872,4.78a5.7,5.7,0,0,1,2.62-.243A37.194,37.194,0,0,1,6.361.16C5.773-.217,3.831-.007,2.163,1.66Zm0,0" transform="translate(0 7.568)" fill="#f9f9f9"/><path d="M.381,6.187a.692.692,0,0,0,.8-.129L3.144,4.1C4.661,2.58,4.929.621,4.584,0A39.56,39.56,0,0,1,.2,2.847a8.493,8.493,0,0,1-.2,2.619A.692.692,0,0,0,.381,6.187Zm0,0" transform="translate(11.35 17.397)" fill="#f9f9f9"/><path d="M.608.608a2.079,2.079,0,1,0,2.941,0A2.082,2.082,0,0,0,.608.608Zm0,0" transform="translate(13.153 6.345)" fill="#f9f9f9"/><path d="M5.7.676A.692.692,0,0,0,5.06.037,13.7,13.7,0,0,0,0,.626,5.819,5.819,0,0,0,1.724,4.012,5.8,5.8,0,0,0,5.176,5.733,14.333,14.333,0,0,0,5.7.676Zm0,0" transform="translate(17.918)" fill="#f9f9f9"/><path d="M13.379,3.884A7.282,7.282,0,0,1,11.295,0C7.133,1.707,3.148,5.435,0,10.671l1.564,1.564a2.919,2.919,0,0,1,3.189.274A2.916,2.916,0,0,1,5.027,15.7l1.616,1.616c4.029-2.428,8.72-6.254,10.715-11.344A7.247,7.247,0,0,1,13.379,3.884ZM12.4,9.765a3.466,3.466,0,1,1,0-4.9A3.47,3.47,0,0,1,12.4,9.765Zm0,0" transform="translate(5.283 1.109)" fill="#f9f9f9"/></g></g></svg>