<svg xmlns="http://www.w3.org/2000/svg" width="61" height="61.428" viewBox="0 0 61 61.428"><g transform="translate(-0.001 -0.001)"><path d="M73.339,287.329a1.811,1.811,0,0,0,.333,2.08l.437.44c1.263-1.507,2.734-3.142,4.519-4.939.126-.127.256-.188.383-.306L76.2,281.773C74.565,284.75,73.612,286.784,73.339,287.329Zm0,0" transform="translate(-64.433 -247.966)" fill="#0a1838"/><path d="M167.787,389.948c-1.789,1.8-3.409,3.286-4.9,4.559l.592.6a1.777,1.777,0,0,0,2.081.328c.926-.48,2.381-1.17,5.472-2.9l-2.944-2.965C167.975,389.69,167.914,389.821,167.787,389.948Zm0,0" transform="translate(-143.483 -342.823)" fill="#0a1838"/><path d="M75.839,311.858c-1.291-1.3-4.923-.134-6.629,1.583-5.708,5.748-8.285,9.823-9.443,12.229a1.808,1.808,0,0,0,.344,2.056,1.779,1.779,0,0,0,2.045.347c2.336-1.142,6.333-3.726,12.109-9.541,1.876-1.89,2.8-5.437,1.576-6.672Zm0,0" transform="translate(-52.488 -273.951)" fill="#0a1838"/><path d="M5.579,168.094l-5.055,5.09a1.809,1.809,0,0,0-.284,2.172,1.783,1.783,0,0,0,2.01.839c2.732-.738,5.136-1.049,6.754-.631A96.64,96.64,0,0,1,16.4,164.2C14.887,163.22,9.878,163.765,5.579,168.094Zm0,0" transform="translate(0 -144.132)" fill="#0a1838"/><path d="M246.623,392.557a1.775,1.775,0,0,0,2.067-.334l5.055-5.09c3.913-3.942,4.6-9.028,3.714-10.64a101.928,101.928,0,0,1-11.295,7.393c.249,1.416.083,2.789-.505,6.8A1.8,1.8,0,0,0,246.623,392.557Zm0,0" transform="translate(-216.373 -331.321)" fill="#0a1838"/><path d="M286.211,138.888a5.432,5.432,0,0,0,0,7.635,5.341,5.341,0,0,0,7.582,0,5.431,5.431,0,0,0,0-7.635A5.341,5.341,0,0,0,286.211,138.888Zm0,0" transform="translate(-250.73 -120.834)" fill="#0a1838"/><path d="M402.469,1.757A1.791,1.791,0,0,0,400.82.1a35.1,35.1,0,0,0-13.046,1.531,15.148,15.148,0,0,0,4.445,8.791,14.917,14.917,0,0,0,8.9,4.469,37.467,37.467,0,0,0,1.35-13.13Zm0,0" transform="translate(-341.573 0)" fill="#0a1838"/><path d="M148.835,34.08A18.949,18.949,0,0,1,143.462,24c-10.731,4.432-21,14.111-29.122,27.708l4.033,4.061c2.756-1.127,6.1-1.424,8.223.712s1.823,5.507.705,8.278l4.166,4.195c10.389-6.3,22.483-16.238,27.626-29.454A18.641,18.641,0,0,1,148.835,34.08Zm-2.528,15.27a8.9,8.9,0,0,1-12.636,0,9.053,9.053,0,0,1,0-12.725,8.9,8.9,0,0,1,12.636,0A9.053,9.053,0,0,1,146.307,49.35Zm0,0" transform="translate(-100.717 -21.116)" fill="#0a1838"/></g></svg>