<svg id="ui_1_" data-name="ui (1)" xmlns="http://www.w3.org/2000/svg" xmlns:xlink="http://www.w3.org/1999/xlink" width="121.476" height="96.042" viewBox="0 0 121.476 96.042">
  <defs>
    <linearGradient id="linear-gradient" x1="0.441" y1="0.505" x2="1.689" y2="0.505" gradientUnits="objectBoundingBox">
      <stop offset="0.001" stop-color="#3574f9" stop-opacity="0.6"/>
      <stop offset="0.51" stop-color="#f20" stop-opacity="0.302"/>
      <stop offset="0.999" stop-color="#ff1613" stop-opacity="0.502"/>
    </linearGradient>
  </defs>
  <path id="Trazado_65" data-name="Trazado 65" d="M119.949,117.982a27.875,27.875,0,0,0-16.584-17.13A10.179,10.179,0,0,1,96.816,91.5v-.285A28.012,28.012,0,0,0,46.28,75.251a22.8,22.8,0,0,1-18.293,9.467h-.641C12.685,85.074.181,97.672-.009,112.359A28.007,28.007,0,0,0,54.3,122.371a5.748,5.748,0,0,1,6.952-3.511c.047,0,.071.024.119.024a5.682,5.682,0,0,1,4.152,5.955,28.009,28.009,0,1,0,54.427-6.857Z" transform="translate(0.011 -61.443)" fill="url(#linear-gradient)"/>
  <path id="Trazado_66" data-name="Trazado 66" d="M148.275,81.386a18.881,18.881,0,0,0-36.419-7H55.01A4,4,0,0,0,51,78.4v52.386a4,4,0,0,0,4.01,4.01h73.17a4,4,0,0,0,4.01-4.01V100.058a18.9,18.9,0,0,0,16.086-18.672Z" transform="translate(-38.897 -60.388)" fill="#6178ff" opacity="0.26"/>
  <path id="Trazado_67" data-name="Trazado 67" d="M195.429,391.923H171.3l3.132-12.456,1.685-6.667h14.473l1.685,6.667Z" transform="translate(-130.655 -297.068)" fill="#afabc6"/>
  <path id="Trazado_68" data-name="Trazado 68" d="M202.418,379.467H184.6l1.685-6.667h14.473Z" transform="translate(-140.8 -297.068)" fill="#8e8ca8"/>
  <path id="Trazado_69" data-name="Trazado 69" d="M191.65,401.984H167.521a1.169,1.169,0,0,1-.925-.451,1.2,1.2,0,0,1-.214-1.02l3.8-15.042a1.188,1.188,0,1,1,2.3.593l-3.417,13.571h21.068l-3.464-13.713a1.188,1.188,0,1,1,2.3-.593l3.82,15.161a1.209,1.209,0,0,1-1.139,1.495Z" transform="translate(-126.876 -305.943)" fill="#0c0caf"/>
  <path id="Trazado_70" data-name="Trazado 70" d="M128.2,194.029H55.01A4,4,0,0,1,51,190.02V137.61a4,4,0,0,1,4.01-4.01h73.17a4,4,0,0,1,4.01,4.01V190A3.99,3.99,0,0,1,128.2,194.029Z" transform="translate(-38.897 -114.619)" fill="#f5f4f9"/>
  <path id="Trazado_71" data-name="Trazado 71" d="M323.509,137.609v24.912a18.619,18.619,0,0,1-2.823.214A18.9,18.9,0,0,1,304.813,133.6H319.5a3.99,3.99,0,0,1,4.01,4.01Z" transform="translate(-230.193 -114.619)" fill="#e8e6ed"/>
  <path id="Trazado_72" data-name="Trazado 72" d="M269.1,147.7h19.455v46.36H269.1Z" transform="translate(-205.251 -125.374)" fill="#f55"/>
  <path id="Trazado_73" data-name="Trazado 73" d="M313.421,147.7v24.366A18.882,18.882,0,0,1,301.7,154.6a18.487,18.487,0,0,1,1.3-6.88Z" transform="translate(-230.117 -125.374)" fill="#d63838"/>
  <path id="Trazado_74" data-name="Trazado 74" d="M281.38,279.03H255.4V259.836a.739.739,0,0,1,.736-.736h24.509a.739.739,0,0,1,.735.736V279.03Z" transform="translate(-194.802 -210.344)" fill="#e2ccff"/>
  <path id="Trazado_75" data-name="Trazado 75" d="M281.38,264.937H255.4v-5.1a.739.739,0,0,1,.736-.736h24.509a.739.739,0,0,1,.735.736v5.1Z" transform="translate(-194.802 -210.344)" fill="#6178ff"/>
  <path id="Trazado_76" data-name="Trazado 76" d="M132.213,143.826V137.61a4,4,0,0,0-4.01-4.01H55.01A4,4,0,0,0,51,137.61v6.216Z" transform="translate(-38.897 -114.619)" fill="#6178ff"/>
  <path id="Trazado_77" data-name="Trazado 77" d="M106.69,174.073h-59.5a1.186,1.186,0,1,1,0-2.373h59.5a1.175,1.175,0,0,1,1.186,1.186A1.19,1.19,0,0,1,106.69,174.073Z" transform="translate(-35.083 -143.68)" fill="#0c0caf"/>
  <path id="Trazado_78" data-name="Trazado 78" d="M51,343.1v6.691a4,4,0,0,0,4.01,4.01h73.17a4,4,0,0,0,4.01-4.01V343.1Z" transform="translate(-38.897 -274.414)" fill="#cecae0"/>
  <g id="Grupo_7" data-name="Grupo 7" transform="translate(10.917 17.794)">
    <path id="Trazado_79" data-name="Trazado 79" d="M182.577,450.773H150.286a1.186,1.186,0,1,1,0-2.373h32.291a1.186,1.186,0,0,1,0,2.373Z" transform="translate(-124.639 -372.525)" fill="#0c0caf"/>
    <path id="Trazado_80" data-name="Trazado 80" d="M81.286,152.5A1.175,1.175,0,0,1,80.1,151.31v-.024a1.186,1.186,0,1,1,2.373,0v.024A1.175,1.175,0,0,1,81.286,152.5Z" transform="translate(-72.01 -144.999)" fill="#0c0caf"/>
    <path id="Trazado_81" data-name="Trazado 81" d="M98.586,152.5A1.175,1.175,0,0,1,97.4,151.31v-.024a1.186,1.186,0,1,1,2.373,0v.024A1.175,1.175,0,0,1,98.586,152.5Z" transform="translate(-85.205 -144.999)" fill="#0c0caf"/>
    <path id="Trazado_82" data-name="Trazado 82" d="M115.986,152.5a1.175,1.175,0,0,1-1.186-1.186v-.024a1.186,1.186,0,1,1,2.373,0v.024A1.19,1.19,0,0,1,115.986,152.5Z" transform="translate(-98.477 -144.999)" fill="#0c0caf"/>
    <path id="Trazado_83" data-name="Trazado 83" d="M124.39,275.609H51.2a5.194,5.194,0,0,1-5.2-5.2v-6.691a1.175,1.175,0,0,1,1.186-1.186h80.027v-22.35a1.186,1.186,0,0,1,2.373,0v30.227a5.21,5.21,0,0,1-5.2,5.2ZM48.373,264.885v5.5a2.83,2.83,0,0,0,2.823,2.823h73.17a2.83,2.83,0,0,0,2.823-2.823v-5.5Z" transform="translate(-46 -212.807)" fill="#0c0caf"/>
    <path id="Trazado_84" data-name="Trazado 84" d="M47.186,173.987A1.175,1.175,0,0,1,46,172.8V133.8a5.194,5.194,0,0,1,5.2-5.2h50.18a1.186,1.186,0,0,1,0,2.373H51.2a2.83,2.83,0,0,0-2.823,2.823v39.029A1.17,1.17,0,0,1,47.186,173.987Z" transform="translate(-46 -128.6)" fill="#0c0caf"/>
  </g>
  <circle id="Elipse_1" data-name="Elipse 1" cx="18.886" cy="18.886" r="18.886" transform="translate(71.607 7.094)" fill="#f55"/>
  <path id="Trazado_85" data-name="Trazado 85" d="M316.872,118.644a20.072,20.072,0,1,1,20.072-20.072A20.094,20.094,0,0,1,316.872,118.644Zm0-37.771a17.7,17.7,0,1,0,17.7,17.7A17.73,17.73,0,0,0,316.872,80.873Z" transform="translate(-226.379 -72.592)" fill="#0c0caf"/>
  <circle id="Elipse_2" data-name="Elipse 2" cx="13.998" cy="13.998" r="13.998" transform="translate(76.494 11.981)" fill="#ffc7c7"/>
  <path id="Trazado_86" data-name="Trazado 86" d="M352.19,148.7a1.833,1.833,0,0,1-1.281-.522l-3.725-3.725a1.8,1.8,0,0,1,0-2.562,1.833,1.833,0,0,1,2.586,0l2.444,2.444,7.853-7.853a1.833,1.833,0,0,1,2.586,0,1.8,1.8,0,0,1,0,2.562l-9.134,9.134a2.039,2.039,0,0,1-1.329.522Z" transform="translate(-264.402 -116.412)" fill="#f55"/>
  <path id="Trazado_87" data-name="Trazado 87" d="M106.663,236.12H85.31a1.21,1.21,0,1,1,0-2.42h21.353a1.21,1.21,0,1,1,0,2.42Z" transform="translate(-64.144 -190.97)" fill="#ddd9e4"/>
  <path id="Trazado_88" data-name="Trazado 88" d="M206.447,236.12H200.61a1.21,1.21,0,1,1,0-2.42h5.837a1.21,1.21,0,1,1,0,2.42Z" transform="translate(-152.088 -190.97)" fill="#f55"/>
  <path id="Trazado_89" data-name="Trazado 89" d="M118.5,256.52H85.31a1.21,1.21,0,1,1,0-2.42H118.5a1.21,1.21,0,1,1,0,2.42Z" transform="translate(-64.144 -206.53)" fill="#ddd9e4"/>
  <path id="Trazado_90" data-name="Trazado 90" d="M85.747,202.869a1.113,1.113,0,0,1-.83-.356l-1.661-1.661a1.191,1.191,0,1,1,1.685-1.685l.807.807,2.918-2.918a1.191,1.191,0,0,1,1.685,1.685L86.6,202.489A1.138,1.138,0,0,1,85.747,202.869Z" transform="translate(-63.229 -162.748)" fill="#6178ff"/>
  <path id="Trazado_91" data-name="Trazado 91" d="M92.1,317.92H85.31a1.21,1.21,0,0,1,0-2.42H92.1a1.215,1.215,0,0,1,1.21,1.21A1.2,1.2,0,0,1,92.1,317.92Z" transform="translate(-64.144 -253.362)" fill="#ddd9e4"/>
  <path id="Trazado_92" data-name="Trazado 92" d="M159.69,317.92H139.31a1.21,1.21,0,0,1,0-2.42h20.38a1.21,1.21,0,0,1,0,2.42Z" transform="translate(-105.332 -253.362)" fill="#f55"/>
  <path id="Trazado_93" data-name="Trazado 93" d="M85.747,284.669a1.113,1.113,0,0,1-.83-.356l-1.661-1.661a1.191,1.191,0,0,1,1.685-1.685l.807.807,2.918-2.918a1.191,1.191,0,0,1,1.685,1.685L86.6,284.313A1.2,1.2,0,0,1,85.747,284.669Z" transform="translate(-63.229 -225.141)" fill="#6178ff"/>
  <path id="Trazado_94" data-name="Trazado 94" d="M197.2,61.192a1.113,1.113,0,0,1-.83-.356l-2.61-2.61a1.208,1.208,0,0,1-.356-.83,1.113,1.113,0,0,1,.356-.83l2.61-2.61a1.208,1.208,0,0,1,.83-.356,1.113,1.113,0,0,1,.83.356l2.61,2.61a1.175,1.175,0,0,1,0,1.685l-2.61,2.61A1.145,1.145,0,0,1,197.2,61.192Zm-.925-3.8.925.925.925-.925-.925-.925Z" transform="translate(-147.512 -53.6)" fill="#f55"/>
  <path id="Trazado_95" data-name="Trazado 95" d="M424.1,279.592a1.175,1.175,0,0,1-1.186-1.186,1.428,1.428,0,0,0-1.424-1.424,1.186,1.186,0,1,1,0-2.373,1.428,1.428,0,0,0,1.424-1.424,1.186,1.186,0,0,1,2.373,0,1.428,1.428,0,0,0,1.424,1.424,1.186,1.186,0,0,1,0,2.373,1.428,1.428,0,0,0-1.424,1.424A1.175,1.175,0,0,1,424.1,279.592Z" transform="translate(-320.578 -220.183)" fill="#6178ff"/>
  <path id="Trazado_96" data-name="Trazado 96" d="M159,79.292a1.175,1.175,0,0,1-1.186-1.186,1.428,1.428,0,0,0-1.424-1.424,1.186,1.186,0,0,1,0-2.373,1.428,1.428,0,0,0,1.424-1.424,1.186,1.186,0,0,1,2.373,0,1.428,1.428,0,0,0,1.424,1.424,1.186,1.186,0,1,1,0,2.373,1.428,1.428,0,0,0-1.424,1.424A1.19,1.19,0,0,1,159,79.292Z" transform="translate(-118.375 -67.406)" fill="#6178ff"/>
  <path id="Trazado_97" data-name="Trazado 97" d="M361.2,409.692a1.175,1.175,0,0,1-1.186-1.186,1.428,1.428,0,0,0-1.424-1.424,1.186,1.186,0,0,1,0-2.373,1.428,1.428,0,0,0,1.424-1.424,1.186,1.186,0,0,1,2.373,0,1.428,1.428,0,0,0,1.423,1.424,1.186,1.186,0,1,1,0,2.373,1.428,1.428,0,0,0-1.423,1.424A1.19,1.19,0,0,1,361.2,409.692Z" transform="translate(-272.602 -319.416)" fill="#f55"/>
  <circle id="Elipse_3" data-name="Elipse 3" cx="1.329" cy="1.329" r="1.329" transform="translate(76.257 57.179)" fill="#f5f4f9"/>
  <circle id="Elipse_4" data-name="Elipse 4" cx="1.329" cy="1.329" r="1.329" transform="translate(72.247 57.179)" fill="#f5f4f9"/>
  <circle id="Elipse_5" data-name="Elipse 5" cx="1.329" cy="1.329" r="1.329" transform="translate(68.238 57.179)" fill="#f5f4f9"/>
</svg>
