<svg id="ui" xmlns="http://www.w3.org/2000/svg" xmlns:xlink="http://www.w3.org/1999/xlink" width="117.228" height="97.805" viewBox="0 0 117.228 97.805">
  <defs>
    <linearGradient id="linear-gradient" x1="0.404" y1="0.506" x2="1.567" y2="0.506" gradientUnits="objectBoundingBox">
      <stop offset="0.001" stop-color="#3574f9" stop-opacity="0.6"/>
      <stop offset="0.51" stop-color="#f20" stop-opacity="0.302"/>
      <stop offset="0.999" stop-color="#ff1613" stop-opacity="0.502"/>
    </linearGradient>
  </defs>
  <path id="Trazado_98" data-name="Trazado 98" d="M87.6,99.674h-.137a25.34,25.34,0,0,1-19.1-8.7A38.9,38.9,0,0,0,38.8,77.6a38.987,38.987,0,0,0,.16,77.974A38.71,38.71,0,0,0,55.8,151.749a13,13,0,0,1,13.511,1.42A29.809,29.809,0,1,0,87.6,99.674Z" transform="translate(0.014 -69.561)" fill="url(#linear-gradient)"/>
  <path id="Trazado_99" data-name="Trazado 99" d="M155.575,49.5H105.218a3.43,3.43,0,0,0-3.435,3.435V71.759H83.623a1.715,1.715,0,0,0-1.717,1.717V89.643a1.715,1.715,0,0,0,1.717,1.717h18.16v28.052H77.99a2.3,2.3,0,0,0-2.29,2.29v15.709a2.3,2.3,0,0,0,2.29,2.29h56.517a2.3,2.3,0,0,0,2.29-2.29v-9.137h18.778a3.43,3.43,0,0,0,3.435-3.435V52.935a3.46,3.46,0,0,0-3.435-3.435Z" transform="translate(-58.362 -47.897)" fill="#6178ff" opacity="0.34"/>
  <path id="Trazado_100" data-name="Trazado 100" d="M366.964,441.928a1.134,1.134,0,0,1-1.145-1.145,1.378,1.378,0,0,0-1.374-1.374,1.145,1.145,0,1,1,0-2.29,1.378,1.378,0,0,0,1.374-1.374,1.145,1.145,0,1,1,2.29,0,1.378,1.378,0,0,0,1.374,1.374,1.145,1.145,0,1,1,0,2.29,1.378,1.378,0,0,0-1.374,1.374A1.148,1.148,0,0,1,366.964,441.928Z" transform="translate(-280.102 -344.81)" fill="#8484f7"/>
  <path id="Trazado_101" data-name="Trazado 101" d="M111.664,49.828a1.134,1.134,0,0,1-1.145-1.145,1.378,1.378,0,0,0-1.374-1.374,1.145,1.145,0,1,1,0-2.29,1.378,1.378,0,0,0,1.374-1.374,1.145,1.145,0,1,1,2.29,0,1.378,1.378,0,0,0,1.374,1.374,1.145,1.145,0,0,1,0,2.29,1.378,1.378,0,0,0-1.374,1.374A1.134,1.134,0,0,1,111.664,49.828Z" transform="translate(-83.265 -42.5)" fill="#ff8885"/>
  <path id="Trazado_102" data-name="Trazado 102" d="M90.464,126.328a1.074,1.074,0,0,1-.8-.343l-2.519-2.519a1.166,1.166,0,0,1-.343-.8,1.074,1.074,0,0,1,.343-.8l2.519-2.519a1.134,1.134,0,0,1,1.626,0l2.519,2.519a1.166,1.166,0,0,1,.343.8,1.074,1.074,0,0,1-.343.8l-2.519,2.519A1.2,1.2,0,0,1,90.464,126.328Zm-.916-3.664.893.893.893-.893-.893-.893Z" transform="translate(-66.92 -101.482)" fill="#ff8885"/>
  <path id="Trazado_103" data-name="Trazado 103" d="M144.764,110.028a1.134,1.134,0,0,1-1.145-1.145,1.378,1.378,0,0,0-1.374-1.374,1.145,1.145,0,0,1,0-2.29,1.378,1.378,0,0,0,1.374-1.374,1.145,1.145,0,0,1,2.29,0,1.378,1.378,0,0,0,1.374,1.374,1.145,1.145,0,1,1,0,2.29,1.378,1.378,0,0,0-1.374,1.374A1.148,1.148,0,0,1,144.764,110.028Z" transform="translate(-108.785 -88.914)" fill="#6178ff"/>
  <path id="Trazado_104" data-name="Trazado 104" d="M246.8,73.935v71.928a3.43,3.43,0,0,1-3.435,3.435H193.035a3.43,3.43,0,0,1-3.435-3.435V73.935a3.43,3.43,0,0,1,3.435-3.435h50.357A3.426,3.426,0,0,1,246.8,73.935Z" transform="translate(-146.179 -64.088)" fill="#afabc6"/>
  <path id="Trazado_105" data-name="Trazado 105" d="M189.6,375.9v5.427a3.43,3.43,0,0,0,3.435,3.435h50.357a3.43,3.43,0,0,0,3.435-3.435V375.9Z" transform="translate(-146.179 -299.552)" fill="#ddd9e4"/>
  <path id="Trazado_106" data-name="Trazado 106" d="M202,70.5v78.775h-9.068a3.43,3.43,0,0,1-3.435-3.435V73.935a3.43,3.43,0,0,1,3.435-3.435Z" transform="translate(-146.102 -64.088)" fill="#e8e6ed"/>
  <path id="Trazado_107" data-name="Trazado 107" d="M197.981,183.617v16.167a1.715,1.715,0,0,1-1.717,1.717H189.6V181.9h6.664a1.73,1.73,0,0,1,1.717,1.717Z" transform="translate(-146.179 -149.978)" fill="#ddd9e4"/>
  <path id="Trazado_108" data-name="Trazado 108" d="M246.8,81.538v-7.6a3.43,3.43,0,0,0-3.435-3.435H193.035a3.43,3.43,0,0,0-3.435,3.435v7.6Z" transform="translate(-146.179 -64.088)" fill="#f55"/>
  <path id="Trazado_109" data-name="Trazado 109" d="M303.366,231.2h-3.6a1.172,1.172,0,0,0-1.191,1.03,1.15,1.15,0,0,0,1.145,1.259h3.664a1.134,1.134,0,0,0,1.145-1.145,1.2,1.2,0,0,0-1.168-1.145Z" transform="translate(-230.198 -187.988)" fill="#e2ccff"/>
  <path id="Trazado_110" data-name="Trazado 110" d="M347.21,231.2h-8.564a1.145,1.145,0,1,0,0,2.29h8.61a1.15,1.15,0,0,0,1.145-1.259,1.172,1.172,0,0,0-1.191-1.03Z" transform="translate(-260.21 -187.988)" fill="#ffe783"/>
  <path id="Trazado_111" data-name="Trazado 111" d="M311.61,252.2H299.771a1.172,1.172,0,0,0-1.191,1.03,1.15,1.15,0,0,0,1.145,1.259h11.908a1.134,1.134,0,0,0,1.145-1.145,1.183,1.183,0,0,0-1.168-1.145Z" transform="translate(-230.198 -204.179)" fill="#e2ccff"/>
  <path id="Trazado_112" data-name="Trazado 112" d="M381.836,252.2h-7.191a1.145,1.145,0,1,0,0,2.29h7.236a1.15,1.15,0,0,0,1.145-1.259,1.172,1.172,0,0,0-1.191-1.03Z" transform="translate(-287.966 -204.179)" fill="#ffe783"/>
  <path id="Trazado_113" data-name="Trazado 113" d="M308.175,273.2h-8.4a1.172,1.172,0,0,0-1.191,1.03,1.15,1.15,0,0,0,1.145,1.259H308.2a1.134,1.134,0,0,0,1.145-1.145,1.183,1.183,0,0,0-1.168-1.145Z" transform="translate(-230.198 -220.37)" fill="#e2ccff"/>
  <path id="Trazado_114" data-name="Trazado 114" d="M363.4,273.2h-3.756a1.145,1.145,0,1,0,0,2.29h3.8a1.15,1.15,0,0,0,1.145-1.259,1.172,1.172,0,0,0-1.191-1.03Z" transform="translate(-276.401 -220.37)" fill="#ffe783"/>
  <path id="Trazado_115" data-name="Trazado 115" d="M358.706,294.1h-14.06a1.145,1.145,0,1,0,0,2.29h14.106a1.15,1.15,0,0,0,1.145-1.259,1.191,1.191,0,0,0-1.191-1.03Z" transform="translate(-264.836 -236.484)" fill="#ffe783"/>
  <path id="Trazado_116" data-name="Trazado 116" d="M304.74,294.1h-4.969a1.172,1.172,0,0,0-1.191,1.03,1.15,1.15,0,0,0,1.145,1.259h5.038a1.134,1.134,0,0,0,1.145-1.145,1.2,1.2,0,0,0-1.168-1.145Z" transform="translate(-230.198 -236.484)" fill="#e2ccff"/>
  <path id="Trazado_117" data-name="Trazado 117" d="M273.6,196.4h-3.824a1.172,1.172,0,0,0-1.191,1.03,1.15,1.15,0,0,0,1.145,1.259h3.893a1.134,1.134,0,0,0,1.145-1.145A1.183,1.183,0,0,0,273.6,196.4Z" transform="translate(-207.068 -161.157)" fill="#f5f4f9"/>
  <path id="Trazado_118" data-name="Trazado 118" d="M325.853,196.4H310.945a1.145,1.145,0,1,0,0,2.29H325.9a1.15,1.15,0,0,0,1.145-1.259,1.172,1.172,0,0,0-1.191-1.03Z" transform="translate(-238.853 -161.157)" fill="#f5f4f9"/>
  <path id="Trazado_119" data-name="Trazado 119" d="M273.6,332h-3.824a1.172,1.172,0,0,0-1.191,1.03,1.15,1.15,0,0,0,1.145,1.26h3.893a1.134,1.134,0,0,0,1.145-1.145A1.183,1.183,0,0,0,273.6,332Z" transform="translate(-207.068 -265.705)" fill="#f5f4f9"/>
  <path id="Trazado_120" data-name="Trazado 120" d="M325.853,332H310.945a1.145,1.145,0,1,0,0,2.29H325.9a1.15,1.15,0,0,0,1.145-1.26,1.172,1.172,0,0,0-1.191-1.03Z" transform="translate(-238.853 -265.705)" fill="#f5f4f9"/>
  <path id="Trazado_121" data-name="Trazado 121" d="M129.341,187.4H104.517a1.715,1.715,0,0,1-1.717-1.717V169.517a1.715,1.715,0,0,1,1.717-1.717h24.823a1.715,1.715,0,0,1,1.717,1.717v16.167A1.73,1.73,0,0,1,129.341,187.4Z" transform="translate(-79.256 -139.107)" fill="#6178ff"/>
  <path id="Trazado_122" data-name="Trazado 122" d="M127.993,201.309a1.074,1.074,0,0,1-.8-.343l-2.748-2.748a1.134,1.134,0,0,1,0-1.626l2.748-2.748a1.15,1.15,0,0,1,1.626,1.626l-1.946,1.946,1.946,1.946a1.134,1.134,0,0,1,0,1.626,1.243,1.243,0,0,1-.824.321Z" transform="translate(-95.678 -158.921)" fill="#f5f4f9"/>
  <path id="Trazado_123" data-name="Trazado 123" d="M183.968,193.5a1.074,1.074,0,0,1,.8.343l2.748,2.748a1.134,1.134,0,0,1,0,1.626l-2.748,2.748a1.15,1.15,0,0,1-1.626-1.626l1.946-1.946-1.946-1.946a1.134,1.134,0,0,1,0-1.626,1.243,1.243,0,0,1,.824-.321Z" transform="translate(-140.936 -158.921)" fill="#f5f4f9"/>
  <path id="Trazado_124" data-name="Trazado 124" d="M153.8,201.337a1.313,1.313,0,0,1-.572-.137,1.137,1.137,0,0,1-.435-1.557l3.114-5.519a1.143,1.143,0,1,1,1.992,1.122l-3.114,5.519a1.134,1.134,0,0,1-.985.572Z" transform="translate(-117.68 -158.949)" fill="#f5f4f9"/>
  <path id="Trazado_125" data-name="Trazado 125" d="M134.507,396.189H77.99a2.3,2.3,0,0,1-2.29-2.29V378.19a2.3,2.3,0,0,1,2.29-2.29h56.517a2.3,2.3,0,0,1,2.29,2.29V393.9A2.3,2.3,0,0,1,134.507,396.189Z" transform="translate(-58.362 -299.552)" fill="#f5f4f9"/>
  <g id="Grupo_8" data-name="Grupo 8" transform="translate(16.193 5.267)">
    <path id="Trazado_126" data-name="Trazado 126" d="M223.745,89.5a1.134,1.134,0,0,0-1.145,1.145v.023a1.145,1.145,0,1,0,2.29,0v-.023A1.148,1.148,0,0,0,223.745,89.5Z" transform="translate(-187.815 -84.004)" fill="#0c0caf"/>
    <path id="Trazado_127" data-name="Trazado 127" d="M243.145,89.5A1.134,1.134,0,0,0,242,90.645v.023a1.145,1.145,0,0,0,2.29,0v-.023A1.163,1.163,0,0,0,243.145,89.5Z" transform="translate(-202.773 -84.004)" fill="#0c0caf"/>
    <path id="Trazado_128" data-name="Trazado 128" d="M262.445,89.5a1.134,1.134,0,0,0-1.145,1.145v.023a1.145,1.145,0,1,0,2.29,0v-.023A1.163,1.163,0,0,0,262.445,89.5Z" transform="translate(-217.653 -84.004)" fill="#0c0caf"/>
    <path id="Trazado_129" data-name="Trazado 129" d="M151.72,65.5H101.363a4.593,4.593,0,0,0-4.58,4.58V82.606a1.145,1.145,0,0,0,2.29,0V78.828H154.01v63.181a2.3,2.3,0,0,1-2.29,2.29H134.087v-5.427a3.43,3.43,0,0,0-3.435-3.435H104.225a1.145,1.145,0,0,0,0,2.29h26.426a1.134,1.134,0,0,1,1.145,1.145V154.58a1.134,1.134,0,0,1-1.145,1.145H74.135a1.134,1.134,0,0,1-1.145-1.145V138.871a1.134,1.134,0,0,1,1.145-1.145H97.928a1.134,1.134,0,0,0,1.145-1.145V109.674h5.519a2.864,2.864,0,0,0,2.862-2.862V90.644a2.864,2.864,0,0,0-2.862-2.862H79.768a2.864,2.864,0,0,0-2.862,2.862v6.939H75.738a5.053,5.053,0,0,0-5.038,5.038v7.465a5.053,5.053,0,0,0,5.038,5.038H84.9a2.771,2.771,0,0,1,0,5.542h-9.16a5.038,5.038,0,0,0,0,10.076h8.725a2.756,2.756,0,0,1,2.748,2.748v1.969H74.135a3.43,3.43,0,0,0-3.435,3.435V154.6a3.43,3.43,0,0,0,3.435,3.435h56.517a3.43,3.43,0,0,0,3.435-3.435v-7.992H151.72a4.593,4.593,0,0,0,4.58-4.58V70.08a4.608,4.608,0,0,0-4.58-4.58ZM79.2,90.644a.567.567,0,0,1,.573-.572h24.823a.567.567,0,0,1,.572.572v16.167a.567.567,0,0,1-.572.572H79.768a.567.567,0,0,1-.573-.572Zm5.267,37.785H75.738a2.748,2.748,0,1,1,0-5.5H84.9a5.061,5.061,0,1,0,0-10.122h-9.16a2.756,2.756,0,0,1-2.748-2.748V102.6a2.756,2.756,0,0,1,2.748-2.748h1.168v6.939a2.864,2.864,0,0,0,2.862,2.862H96.783v25.762H89.5v-1.969A5.033,5.033,0,0,0,84.463,128.429Zm14.61-51.891V70.08a2.3,2.3,0,0,1,2.29-2.29H151.72a2.3,2.3,0,0,1,2.29,2.29v6.458Z" transform="translate(-70.7 -65.5)" fill="#0c0caf"/>
    <path id="Trazado_130" data-name="Trazado 130" d="M217.09,288.045a1.145,1.145,0,1,0-2.29,0v.023a1.145,1.145,0,0,0,2.29,0Z" transform="translate(-181.801 -236.2)" fill="#0c0caf"/>
    <path id="Trazado_131" data-name="Trazado 131" d="M215.945,332.3a1.134,1.134,0,0,0-1.145,1.145v.023a1.145,1.145,0,0,0,2.29,0v-.023A1.134,1.134,0,0,0,215.945,332.3Z" transform="translate(-181.801 -271.203)" fill="#0c0caf"/>
    <path id="Trazado_132" data-name="Trazado 132" d="M96.09,396.945a1.145,1.145,0,0,0-2.29,0v.023a1.145,1.145,0,0,0,2.29,0Z" transform="translate(-88.51 -320.162)" fill="#0c0caf"/>
    <path id="Trazado_133" data-name="Trazado 133" d="M120.59,396.945a1.145,1.145,0,0,0-2.29,0v.023a1.145,1.145,0,0,0,2.29,0Z" transform="translate(-107.4 -320.162)" fill="#0c0caf"/>
    <path id="Trazado_134" data-name="Trazado 134" d="M143.945,398.113a1.134,1.134,0,0,0,1.145-1.145v-.023a1.145,1.145,0,0,0-2.29,0v.023A1.134,1.134,0,0,0,143.945,398.113Z" transform="translate(-126.289 -320.162)" fill="#0c0caf"/>
    <path id="Trazado_135" data-name="Trazado 135" d="M169.59,396.968v-.023a1.145,1.145,0,0,0-2.29,0v.023a1.145,1.145,0,0,0,2.29,0Z" transform="translate(-145.179 -320.162)" fill="#0c0caf"/>
    <path id="Trazado_136" data-name="Trazado 136" d="M194.09,396.968v-.023a1.145,1.145,0,0,0-2.29,0v.023a1.145,1.145,0,0,0,2.29,0Z" transform="translate(-164.068 -320.162)" fill="#0c0caf"/>
    <path id="Trazado_137" data-name="Trazado 137" d="M218.59,396.968v-.023a1.145,1.145,0,0,0-2.29,0v.023a1.145,1.145,0,0,0,2.29,0Z" transform="translate(-182.958 -320.162)" fill="#0c0caf"/>
    <path id="Trazado_138" data-name="Trazado 138" d="M243.09,396.968v-.023a1.145,1.145,0,0,0-2.29,0v.023a1.145,1.145,0,0,0,2.29,0Z" transform="translate(-201.847 -320.162)" fill="#0c0caf"/>
    <path id="Trazado_139" data-name="Trazado 139" d="M266.445,398.113a1.134,1.134,0,0,0,1.145-1.145v-.023a1.145,1.145,0,0,0-2.29,0v.023A1.148,1.148,0,0,0,266.445,398.113Z" transform="translate(-220.737 -320.162)" fill="#0c0caf"/>
    <path id="Trazado_140" data-name="Trazado 140" d="M290.945,398.113a1.134,1.134,0,0,0,1.145-1.145v-.023a1.145,1.145,0,0,0-2.29,0v.023A1.148,1.148,0,0,0,290.945,398.113Z" transform="translate(-239.627 -320.162)" fill="#0c0caf"/>
    <path id="Trazado_141" data-name="Trazado 141" d="M315.445,398.113a1.134,1.134,0,0,0,1.145-1.145v-.023a1.145,1.145,0,0,0-2.29,0v.023A1.148,1.148,0,0,0,315.445,398.113Z" transform="translate(-258.516 -320.162)" fill="#0c0caf"/>
    <path id="Trazado_142" data-name="Trazado 142" d="M106,416.245v.023a1.145,1.145,0,0,0,2.29,0v-.023a1.134,1.134,0,0,0-1.145-1.145A1.148,1.148,0,0,0,106,416.245Z" transform="translate(-97.916 -335.042)" fill="#0c0caf"/>
    <path id="Trazado_143" data-name="Trazado 143" d="M130.5,416.245v.023a1.145,1.145,0,0,0,2.29,0v-.023a1.134,1.134,0,0,0-1.145-1.145A1.148,1.148,0,0,0,130.5,416.245Z" transform="translate(-116.806 -335.042)" fill="#0c0caf"/>
    <path id="Trazado_144" data-name="Trazado 144" d="M157.39,416.268v-.023a1.145,1.145,0,1,0-2.29,0v.023a1.145,1.145,0,0,0,2.29,0Z" transform="translate(-135.773 -335.042)" fill="#0c0caf"/>
    <path id="Trazado_145" data-name="Trazado 145" d="M181.89,416.268v-.023a1.145,1.145,0,1,0-2.29,0v.023a1.145,1.145,0,0,0,2.29,0Z" transform="translate(-154.662 -335.042)" fill="#0c0caf"/>
    <path id="Trazado_146" data-name="Trazado 146" d="M205.245,415.1a1.134,1.134,0,0,0-1.145,1.145v.023a1.145,1.145,0,0,0,2.29,0v-.023A1.164,1.164,0,0,0,205.245,415.1Z" transform="translate(-173.552 -335.042)" fill="#0c0caf"/>
    <path id="Trazado_147" data-name="Trazado 147" d="M230.89,416.268v-.023a1.145,1.145,0,1,0-2.29,0v.023a1.145,1.145,0,0,0,2.29,0Z" transform="translate(-192.441 -335.042)" fill="#0c0caf"/>
    <path id="Trazado_148" data-name="Trazado 148" d="M255.39,416.268v-.023a1.145,1.145,0,1,0-2.29,0v.023a1.134,1.134,0,0,0,1.145,1.145A1.148,1.148,0,0,0,255.39,416.268Z" transform="translate(-211.331 -335.042)" fill="#0c0caf"/>
    <path id="Trazado_149" data-name="Trazado 149" d="M279.89,416.268v-.023a1.145,1.145,0,1,0-2.29,0v.023a1.145,1.145,0,0,0,2.29,0Z" transform="translate(-230.22 -335.042)" fill="#0c0caf"/>
    <path id="Trazado_150" data-name="Trazado 150" d="M304.39,416.268v-.023a1.145,1.145,0,1,0-2.29,0v.023a1.145,1.145,0,1,0,2.29,0Z" transform="translate(-249.11 -335.042)" fill="#0c0caf"/>
    <path id="Trazado_151" data-name="Trazado 151" d="M94.945,434.4a1.134,1.134,0,0,0-1.145,1.145v.023a1.145,1.145,0,0,0,2.29,0v-.023A1.163,1.163,0,0,0,94.945,434.4Z" transform="translate(-88.51 -349.923)" fill="#0c0caf"/>
    <path id="Trazado_152" data-name="Trazado 152" d="M119.445,434.4a1.134,1.134,0,0,0-1.145,1.145v.023a1.145,1.145,0,0,0,2.29,0v-.023A1.148,1.148,0,0,0,119.445,434.4Z" transform="translate(-107.4 -349.923)" fill="#0c0caf"/>
    <path id="Trazado_153" data-name="Trazado 153" d="M142.8,435.645a1.134,1.134,0,0,0,1.145,1.145h22.442a1.145,1.145,0,1,0,0-2.29H143.945A1.148,1.148,0,0,0,142.8,435.645Z" transform="translate(-126.289 -350)" fill="#0c0caf"/>
    <path id="Trazado_154" data-name="Trazado 154" d="M265.3,435.568a1.145,1.145,0,0,0,2.29,0v-.023a1.145,1.145,0,1,0-2.29,0Z" transform="translate(-220.737 -349.923)" fill="#0c0caf"/>
    <path id="Trazado_155" data-name="Trazado 155" d="M289.8,435.568a1.145,1.145,0,0,0,2.29,0v-.023a1.145,1.145,0,1,0-2.29,0Z" transform="translate(-239.627 -349.923)" fill="#0c0caf"/>
    <path id="Trazado_156" data-name="Trazado 156" d="M314.3,435.568a1.145,1.145,0,0,0,2.29,0v-.023a1.145,1.145,0,1,0-2.29,0Z" transform="translate(-258.516 -349.923)" fill="#0c0caf"/>
  </g>
</svg>
