<svg id="ui_2_" data-name="ui (2)" xmlns="http://www.w3.org/2000/svg" xmlns:xlink="http://www.w3.org/1999/xlink" width="120.484" height="96.105" viewBox="0 0 120.484 96.105">
  <defs>
    <linearGradient id="linear-gradient" x1="0.344" y1="0.524" x2="1.628" y2="0.524" gradientUnits="objectBoundingBox">
      <stop offset="0.001" stop-color="#3574f9" stop-opacity="0.6"/>
      <stop offset="0.51" stop-color="#f20" stop-opacity="0.302"/>
      <stop offset="0.999" stop-color="#ff1613" stop-opacity="0.502"/>
    </linearGradient>
  </defs>
  <path id="Trazado_157" data-name="Trazado 157" d="M113.671,117.294a24.3,24.3,0,0,0-30.545-3.506,11.95,11.95,0,0,1-9.107,1.624,31.578,31.578,0,0,0-21.814,3.059,13.361,13.361,0,0,1-14.025-.894,24.272,24.272,0,1,0-8.636,43.628,13.385,13.385,0,0,1,13.249,4.659A31.451,31.451,0,0,0,93.5,163.253c0-.024.024-.024.024-.047a11.943,11.943,0,0,1,7.554-5.2,24.276,24.276,0,0,0,12.59-40.71Z" transform="translate(-0.015 -96.233)" fill="url(#linear-gradient)"/>
  <path id="Trazado_158" data-name="Trazado 158" d="M146.91,120.767h-4.495a21.908,21.908,0,0,0-17.3-37.887A24.3,24.3,0,0,0,89,63.443V53.465A1.763,1.763,0,0,0,87.233,51.7H61.724a1.763,1.763,0,0,0-1.765,1.765v16.59a1.763,1.763,0,0,0,1.765,1.765H80.2A24.484,24.484,0,0,0,76.62,82.833,21.912,21.912,0,0,0,64.9,84.739a5.468,5.468,0,1,0-8.236,6.683,21.647,21.647,0,0,0-4.142,9.789A21.92,21.92,0,0,0,70.76,126.273c11.837,1.859,48.382,1.859,60.242,0,.118-.024.235-.047.377-.071v8.166a2.36,2.36,0,0,0,2.353,2.353h13.2a2.36,2.36,0,0,0,2.353-2.353V123.12a2.4,2.4,0,0,0-2.377-2.353Z" transform="translate(-39.96 -51.7)" fill="#6178ff" opacity="0.26"/>
  <circle id="Elipse_6" data-name="Elipse 6" cx="5.459" cy="5.459" r="5.459" transform="translate(91.324 14.637)" fill="#590bb2" opacity="0.1"/>
  <path id="Trazado_159" data-name="Trazado 159" d="M149.293,150.3a21.9,21.9,0,0,0-24.1-18.355,24.3,24.3,0,0,0-48.476,0,21.922,21.922,0,0,0-5.859,43.44c11.837,1.859,48.382,1.859,60.242,0a21.922,21.922,0,0,0,18.19-25.085Z" transform="translate(-40.037 -95.822)" fill="#6178ff"/>
  <path id="Trazado_160" data-name="Trazado 160" d="M174.907,122.5v9.483a1.778,1.778,0,0,1-1.765,1.765H164.6A24.506,24.506,0,0,1,174.907,122.5Z" transform="translate(-125.87 -105.839)" fill="#3737d1"/>
  <path id="Trazado_161" data-name="Trazado 161" d="M199.03,253.206v32c-13.013,1.294-40.216,1.294-53.23,0v-32a.693.693,0,0,1,.706-.706h51.818a.724.724,0,0,1,.706.706Z" transform="translate(-111.494 -205.248)" fill="#f5f4f9"/>
  <path id="Trazado_162" data-name="Trazado 162" d="M215.824,212.016h-6.542V173.353A2.36,2.36,0,0,0,206.929,171H195.916a2.36,2.36,0,0,0-2.353,2.353V212.04H187.02a3.289,3.289,0,0,0-2.636,5.248l14.425,19.32a3.262,3.262,0,0,0,5.248,0l14.425-19.32a3.311,3.311,0,0,0-2.659-5.271Z" transform="translate(-140.501 -142.926)" fill="#6178ff"/>
  <path id="Trazado_163" data-name="Trazado 163" d="M112.274,92.843H86.765A1.763,1.763,0,0,1,85,91.079V74.465A1.763,1.763,0,0,1,86.765,72.7h25.509a1.763,1.763,0,0,1,1.765,1.765v16.59A1.768,1.768,0,0,1,112.274,92.843Z" transform="translate(-65.001 -67.758)" fill="#f5f4f9"/>
  <path id="Trazado_164" data-name="Trazado 164" d="M110.3,106.524a1.1,1.1,0,0,1-.824-.353l-2.824-2.824a1.165,1.165,0,0,1,0-1.671l2.824-2.824a1.181,1.181,0,0,1,1.671,1.671l-2,2,2,2a1.165,1.165,0,0,1,0,1.671A1.277,1.277,0,0,1,110.3,106.524Z" transform="translate(-81.289 -87.487)" fill="#f55"/>
  <path id="Trazado_165" data-name="Trazado 165" d="M166.2,98.5a1.1,1.1,0,0,1,.824.353l2.824,2.824a1.165,1.165,0,0,1,0,1.671l-2.824,2.824a1.181,1.181,0,0,1-1.671-1.671l2-2-2-2a1.165,1.165,0,0,1,0-1.671,1.277,1.277,0,0,1,.847-.329Z" transform="translate(-126.176 -87.487)" fill="#f55"/>
  <path id="Trazado_166" data-name="Trazado 166" d="M136.028,106.552a1.349,1.349,0,0,1-.588-.141,1.169,1.169,0,0,1-.447-1.6l3.2-5.671a1.175,1.175,0,0,1,2.047,1.153l-3.2,5.648a1.189,1.189,0,0,1-1.012.612Z" transform="translate(-103.11 -87.515)" fill="#f55"/>
  <path id="Trazado_167" data-name="Trazado 167" d="M403.955,382.155h-13.2A2.36,2.36,0,0,1,388.4,379.8V368.553a2.36,2.36,0,0,1,2.353-2.353h13.2a2.36,2.36,0,0,1,2.353,2.353V379.8A2.36,2.36,0,0,1,403.955,382.155Z" transform="translate(-297.005 -292.192)" fill="#f5f4f9"/>
  <path id="Trazado_168" data-name="Trazado 168" d="M415.828,391.152a1.349,1.349,0,0,1-.588-.141,1.169,1.169,0,0,1-.447-1.6l3.2-5.671a1.175,1.175,0,1,1,2.047,1.153l-3.2,5.648A1.189,1.189,0,0,1,415.828,391.152Z" transform="translate(-317.067 -305.143)" fill="#f55"/>
  <circle id="Elipse_7" data-name="Elipse 7" cx="5.459" cy="5.459" r="5.459" transform="translate(44.331 77.985)" fill="#f5f4f9"/>
  <circle id="Elipse_8" data-name="Elipse 8" cx="5.459" cy="5.459" r="5.459" transform="translate(14.539 34.875)" fill="#f5f4f9"/>
  <circle id="Elipse_9" data-name="Elipse 9" cx="5.459" cy="5.459" r="5.459" transform="translate(91.324 19.579)" fill="#f5f4f9"/>
  <path id="Trazado_169" data-name="Trazado 169" d="M143.182,136.767h-1.718a23.1,23.1,0,0,0-19.014-38,25.333,25.333,0,0,0-5.459-12.943,1.172,1.172,0,0,0-1.836,1.459,22.906,22.906,0,0,1,5.059,12.825,1.136,1.136,0,0,0,.424.824,1.1,1.1,0,0,0,.894.259,20.749,20.749,0,0,1,16.684,35.58H129.98a3.525,3.525,0,0,0-3.53,3.53v2.094c-3.271.471-8.307.824-14.66,1.059l3.342-4.495a4.457,4.457,0,0,0-3.553-7.13h-5.365V94.362a3.525,3.525,0,0,0-3.53-3.53H91.67a3.525,3.525,0,0,0-3.53,3.53v17.32a1.177,1.177,0,0,0,2.353,0V94.362a1.165,1.165,0,0,1,1.177-1.177h11.013a1.165,1.165,0,0,1,1.177,1.177v38.687a1.165,1.165,0,0,0,1.177,1.177h6.542a2.059,2.059,0,0,1,1.883,1.153,2.092,2.092,0,0,1-.188,2.212l-14.449,19.3a2.118,2.118,0,0,1-3.389,0l-4.118-5.53a6.618,6.618,0,0,0-5.295-10.613,6.272,6.272,0,0,0-2.306.424l-2.683-3.577a2.107,2.107,0,0,1,1.694-3.365H89.27a1.165,1.165,0,0,0,1.177-1.177V118.176a1.177,1.177,0,1,0-2.353,0v13.7H82.728A4.457,4.457,0,0,0,79.175,139l2.518,3.389a6.71,6.71,0,0,0-.965,1.035,125.944,125.944,0,0,1-13.507-1.082A20.793,20.793,0,0,1,53.242,110.2a6.637,6.637,0,0,0,9.389-7.6A20.925,20.925,0,0,1,72.75,101.21a1.222,1.222,0,0,0,.894-.259,1.1,1.1,0,0,0,.424-.824A23.432,23.432,0,0,1,77.127,90.2h6.354a2.943,2.943,0,0,0,2.942-2.942V81.3a23.167,23.167,0,0,1,24.238,1.765,1.226,1.226,0,0,0,.682.212,1.187,1.187,0,0,0,.706-2.141,25.5,25.5,0,0,0-25.626-2.471V70.642A2.943,2.943,0,0,0,83.481,67.7H58a2.943,2.943,0,0,0-2.942,2.942v16.59A2.943,2.943,0,0,0,58,90.173H74.468a25.486,25.486,0,0,0-2.612,8.566,23.057,23.057,0,0,0-10.166,1.694,6.634,6.634,0,1,0-10.284,8.33A23.1,23.1,0,0,0,66.891,144.6c2.847.447,7.224.8,12.754,1.059a6.664,6.664,0,0,0,6.424,8.33,6.451,6.451,0,0,0,3.577-1.059l3.977,5.318a4.471,4.471,0,0,0,7.154,0l9.272-12.425h.118c5.012-.141,11.743-.471,16.331-1.082v6.8a3.525,3.525,0,0,0,3.53,3.53h13.2a3.525,3.525,0,0,0,3.53-3.53V140.3a3.612,3.612,0,0,0-3.577-3.53ZM57.408,87.255V70.642A.583.583,0,0,1,58,70.053H83.5a.583.583,0,0,1,.588.588v16.59a.583.583,0,0,1-.588.588H58A.55.55,0,0,1,57.408,87.255ZM56.231,99.962a4.283,4.283,0,1,1-4.283,4.283,4.3,4.3,0,0,1,4.283-4.283ZM81.74,147.38a4.283,4.283,0,1,1,4.283,4.283A4.3,4.3,0,0,1,81.74,147.38Zm62.619,4.165a1.165,1.165,0,0,1-1.177,1.177h-13.2a1.165,1.165,0,0,1-1.177-1.177V140.3a1.165,1.165,0,0,1,1.177-1.177h13.2a1.165,1.165,0,0,1,1.177,1.177Z" transform="translate(-36.232 -63.935)" fill="#0c0caf"/>
  <path id="Trazado_170" data-name="Trazado 170" d="M389.736,143.172a6.636,6.636,0,1,0-6.636-6.636,6.643,6.643,0,0,0,6.636,6.636Zm0-10.919a4.283,4.283,0,1,1-4.283,4.283,4.3,4.3,0,0,1,4.283-4.283Z" transform="translate(-292.952 -111.498)" fill="#0c0caf"/>
  <g id="Grupo_9" data-name="Grupo 9" transform="translate(74.687 6.424)">
    <circle id="Elipse_10" data-name="Elipse 10" cx="1.318" cy="1.318" r="1.318" transform="translate(0 54.477)" fill="#f55"/>
    <circle id="Elipse_11" data-name="Elipse 11" cx="1.318" cy="1.318" r="1.318" transform="translate(0 50.5)" fill="#f55"/>
    <circle id="Elipse_12" data-name="Elipse 12" cx="1.318" cy="1.318" r="1.318" transform="translate(0 46.523)" fill="#f55"/>
    <path id="Trazado_171" data-name="Trazado 171" d="M341.065,86.554a1.1,1.1,0,0,1-.824-.353l-2.589-2.589a1.165,1.165,0,0,1,0-1.671l2.589-2.589a1.165,1.165,0,0,1,1.671,0l2.588,2.589a1.165,1.165,0,0,1,0,1.671L341.912,86.2A1.236,1.236,0,0,1,341.065,86.554Zm-.918-3.765.918.918.918-.918-.918-.918Z" transform="translate(-332.617 -79)" fill="#f55"/>
  </g>
  <path id="Trazado_172" data-name="Trazado 172" d="M45.265,169.954a1.1,1.1,0,0,1-.824-.353l-2.589-2.589a1.165,1.165,0,0,1,0-1.671l2.589-2.589a1.165,1.165,0,0,1,1.671,0l2.589,2.589a1.2,1.2,0,0,1,.353.824,1.1,1.1,0,0,1-.353.824l-2.589,2.589A1.051,1.051,0,0,1,45.265,169.954Zm-.918-3.765.918.918.918-.918-.918-.918Z" transform="translate(-31.738 -136.35)" fill="#f55"/>
  <path id="Trazado_173" data-name="Trazado 173" d="M282.565,62.23a1.165,1.165,0,0,1-1.177-1.177,1.416,1.416,0,0,0-1.412-1.412,1.177,1.177,0,1,1,0-2.353,1.416,1.416,0,0,0,1.412-1.412,1.177,1.177,0,0,1,2.353,0,1.416,1.416,0,0,0,1.412,1.412,1.177,1.177,0,0,1,0,2.353,1.416,1.416,0,0,0-1.412,1.412A1.18,1.18,0,0,1,282.565,62.23Z" transform="translate(-213.196 -53.994)" fill="#6178ff"/>
  <path id="Trazado_174" data-name="Trazado 174" d="M322.665,421.03a1.165,1.165,0,0,1-1.177-1.177,1.416,1.416,0,0,0-1.412-1.412,1.177,1.177,0,1,1,0-2.353,1.416,1.416,0,0,0,1.412-1.412,1.177,1.177,0,0,1,2.353,0,1.416,1.416,0,0,0,1.412,1.412,1.177,1.177,0,1,1,0,2.353,1.416,1.416,0,0,0-1.412,1.412A1.165,1.165,0,0,1,322.665,421.03Z" transform="translate(-243.86 -328.361)" fill="#f55"/>
</svg>
