<svg xmlns="http://www.w3.org/2000/svg" width="232" height="24" viewBox="0 0 232 24"><g transform="translate(280.002 -59)"><path d="M1038.733,975.9h-8.249v-2.049h8.25V975.9Zm-13.741,8.4a5.421,5.421,0,0,1,.8,3,5.98,5.98,0,0,1-.91,3.269,5.663,5.663,0,0,1-1.449,1.609,5.6,5.6,0,0,1-2.312,1.029,14.286,14.286,0,0,1-2.892.277H1009V973h9.893c2.494.041,4.262.763,5.306,2.182a5.214,5.214,0,0,1,.937,3.129,4.561,4.561,0,0,1-.947,3.016,4.827,4.827,0,0,1-1.56,1.166A4.548,4.548,0,0,1,1024.993,984.3Zm-11.266-3.226h4.335a4.106,4.106,0,0,0,2.165-.508,1.937,1.937,0,0,0,.831-1.8,1.834,1.834,0,0,0-1.1-1.89,7.74,7.74,0,0,0-2.418-.32h-3.813Zm7.748,5.935a2.2,2.2,0,0,0-1.3-2.2,5.133,5.133,0,0,0-2.048-.347h-4.4v5.46h4.329a4.807,4.807,0,0,0,2.074-.36A2.583,2.583,0,0,0,1021.475,987.01Zm20.319-3.333a19.286,19.286,0,0,1,.126,2.914h-10.684a3.509,3.509,0,0,0,1.534,3.1,3.862,3.862,0,0,0,2.115.551,2.98,2.98,0,0,0,2.917-1.68h3.916a4.772,4.772,0,0,1-1.422,2.653,7.127,7.127,0,0,1-5.519,2.143,8.007,8.007,0,0,1-5.169-1.806q-2.234-1.81-2.237-5.879a7.948,7.948,0,0,1,2.019-5.851,7.075,7.075,0,0,1,5.25-2.035,8.364,8.364,0,0,1,3.45.686,5.943,5.943,0,0,1,2.533,2.173A7.245,7.245,0,0,1,1041.794,983.676Zm-3.854.382a3.2,3.2,0,0,0-1.025-2.319,3.343,3.343,0,0,0-2.274-.795,3.042,3.042,0,0,0-2.289.842,3.956,3.956,0,0,0-1.023,2.272Z" transform="translate(-1187.986 -911.997)" fill="#5c72a5"/><path d="M1044.324,669.234q-.2.058-.4.109c-.817.206-.892-.066-.3-.664a5.426,5.426,0,0,0,.7-.875c.456-.707.061-1.015-.715-.685q-.415.177-.843.32a3.535,3.535,0,0,1-2.645-.586,5.869,5.869,0,0,0-7.165.838,5.557,5.557,0,0,0-1.7,4.086,6.1,6.1,0,0,0,.037.665c.041.366-.578.631-1.412.514a16.084,16.084,0,0,1-5.147-1.635,16.5,16.5,0,0,1-4.269-3.129c-.59-.6-1.387-.549-1.607.262a5.766,5.766,0,0,0-.2,1.517,5.611,5.611,0,0,0,.7,2.754,5.917,5.917,0,0,0,.816,1.143c.525.574.445.907-.286.7a9.445,9.445,0,0,1-1.266-.487v.036a5.567,5.567,0,0,0,1.319,3.674,5.766,5.766,0,0,0,1.887,1.505c.756.373,1.108.581.685.635a6.016,6.016,0,0,1-.769.049q-.262,0-.549-.024c-.3-.026-.357.6.1,1.307a5.8,5.8,0,0,0,1.4,1.479,5.68,5.68,0,0,0,1.867.934c.811.23.974.65.251,1.082a11.355,11.355,0,0,1-5.94,1.6q-.367,0-.7-.016c-.387-.019-.127.321.62.711a16.141,16.141,0,0,0,7.582,1.826,17,17,0,0,0,5.8-.974,14.755,14.755,0,0,0,4.629-2.611,17.488,17.488,0,0,0,3.311-3.764,16.76,16.76,0,0,0,2.072-4.443,16.361,16.361,0,0,0,.682-4.64q0-.209,0-.375c0-.208.547-.769,1.161-1.344q.416-.389.8-.817C1045.381,669.288,1045.134,669,1044.324,669.234Z" transform="translate(-1298.002 -606)" fill="#5c72a5"/><g transform="translate(-228.936 59)"><path d="M17.186,0H6.55A6.558,6.558,0,0,0,0,6.55V17.186a6.558,6.558,0,0,0,6.55,6.55H17.186a6.558,6.558,0,0,0,6.55-6.55V6.55A6.558,6.558,0,0,0,17.186,0ZM21.63,17.186a4.449,4.449,0,0,1-4.444,4.444H6.55a4.449,4.449,0,0,1-4.444-4.444V6.55A4.449,4.449,0,0,1,6.55,2.106H17.186A4.449,4.449,0,0,1,21.63,6.55V17.186Z" fill="#5c72a5"/><path d="M47.084,40.97A6.116,6.116,0,1,0,53.2,47.086,6.123,6.123,0,0,0,47.084,40.97Zm0,10.126a4.01,4.01,0,1,1,4.01-4.01A4.015,4.015,0,0,1,47.084,51.1Z" transform="translate(-35.216 -35.218)" fill="#5c72a5"/><path d="M120.465,28.251a1.543,1.543,0,1,0,1.092.452A1.55,1.55,0,0,0,120.465,28.251Z" transform="translate(-102.225 -24.285)" fill="#5c72a5"/></g><g transform="translate(-120.738 59)"><path d="M21.362,0H2.374A2.381,2.381,0,0,0,0,2.374V21.362a2.381,2.381,0,0,0,2.374,2.374H21.362a2.381,2.381,0,0,0,2.374-2.374V2.374A2.381,2.381,0,0,0,21.362,0ZM7.121,20.175H3.56V9.494h3.56Zm-1.78-12.7A2.136,2.136,0,1,1,7.477,5.341,2.127,2.127,0,0,1,5.341,7.477Zm14.835,12.7h-3.56v-6.29a1.78,1.78,0,0,0-3.56,0v6.29H9.494V9.494h3.56v1.424a3.834,3.834,0,0,1,2.967-1.661,4.2,4.2,0,0,1,4.154,4.154Z" fill="#5c72a5"/></g><path d="M12,0A12,12,0,1,0,24,12,12.013,12.013,0,0,0,12,0ZM1.21,12A10.7,10.7,0,0,1,2.144,7.61l5.148,14.1A10.794,10.794,0,0,1,1.21,12ZM12,22.79a10.722,10.722,0,0,1-3.048-.441l3.237-9.406L15.5,22.03a1.623,1.623,0,0,0,.077.15A10.8,10.8,0,0,1,12,22.79ZM13.485,6.945h0c.648-.034,1.233-.1,1.233-.1a.447.447,0,0,0-.068-.891s-1.747.135-2.874.135c-1.06,0-2.841-.135-2.841-.135a.447.447,0,0,0-.067.891s.551.068,1.132.1l1.679,4.606L9.318,18.629,5.39,6.944c.649-.034,1.234-.1,1.234-.1a.447.447,0,0,0-.068-.891s-1.747.135-2.874.135c-.2,0-.441-.005-.7-.014a10.791,10.791,0,0,1,16.3-2.033,1.333,1.333,0,0,0-.14-.009,1.867,1.867,0,0,0-1.81,1.916A5.057,5.057,0,0,0,18.4,8.478a5.664,5.664,0,0,1,.891,2.976,12.944,12.944,0,0,1-.823,3.489l-1.075,3.6Zm7.985-.122a10.791,10.791,0,0,1-4.045,14.5h0l3.3-9.528a10.216,10.216,0,0,0,.823-3.866,7.991,7.991,0,0,0-.072-1.107Z" transform="translate(-72.002 59)" fill="#5c72a5"/></g></svg>