<svg xmlns="http://www.w3.org/2000/svg" width="24" height="24" viewBox="0 0 24 24"><path d="M12,0A12,12,0,1,0,24,12,12.013,12.013,0,0,0,12,0ZM1.21,12A10.7,10.7,0,0,1,2.144,7.61l5.148,14.1A10.794,10.794,0,0,1,1.21,12ZM12,22.79a10.722,10.722,0,0,1-3.048-.441l3.237-9.406L15.5,22.03a1.623,1.623,0,0,0,.077.15A10.8,10.8,0,0,1,12,22.79ZM13.485,6.945h0c.648-.034,1.233-.1,1.233-.1a.447.447,0,0,0-.068-.891s-1.747.135-2.874.135c-1.06,0-2.841-.135-2.841-.135a.447.447,0,0,0-.067.891s.551.068,1.132.1l1.679,4.606L9.318,18.629,5.39,6.944c.649-.034,1.234-.1,1.234-.1a.447.447,0,0,0-.068-.891s-1.747.135-2.874.135c-.2,0-.441-.005-.7-.014a10.791,10.791,0,0,1,16.3-2.033,1.333,1.333,0,0,0-.14-.009,1.867,1.867,0,0,0-1.81,1.916A5.057,5.057,0,0,0,18.4,8.478a5.664,5.664,0,0,1,.891,2.976,12.944,12.944,0,0,1-.823,3.489l-1.075,3.6Zm7.985-.122a10.791,10.791,0,0,1-4.045,14.5h0l3.3-9.528a10.216,10.216,0,0,0,.823-3.866,7.991,7.991,0,0,0-.072-1.107Z" fill="#5c72a5"/></svg>